<svg version="1.1" id="Calque_1" xmlns="http://www.w3.org/2000/svg" xmlns:xlink="http://www.w3.org/1999/xlink" x="0" y="0" viewBox="0 0 816.4 181.9" xml:space="preserve"><style>.st9{fill:#fff}</style><path id="SVGID_1_" d="M7.2 165.9c-3.3-3.5-3.6-8.1-3.6-8.1V48.2s.7-4.3 2.4-6.5 4.7-3.8 4.7-3.8L89.6 6.8s2.9-1.4 5.6-1.4 5.9 1.4 5.9 1.4L175.2 38s2.8 1.1 4.7 3.6 2.2 6.7 2.2 6.7v109.5s-.2 5-3 7.8c-3.3 3.3-8.2 3.7-8.2 3.7s-76.9 7.6-75.8 7.6-79.8-7.6-79.8-7.6-5.2-.3-8.1-3.4z"/><defs><path id="SVGID_2_" d="M7.2 165.9c-3.3-3.5-3.6-8.1-3.6-8.1V48.2s.7-4.3 2.4-6.5 4.7-3.8 4.7-3.8L89.6 6.8s2.9-1.4 5.6-1.4 5.9 1.4 5.9 1.4L175.2 38s2.8 1.1 4.7 3.6 2.2 6.7 2.2 6.7v109.5s-.2 5-3 7.8c-3.3 3.3-8.2 3.7-8.2 3.7s-76.9 7.6-75.8 7.6-79.8-7.6-79.8-7.6-5.2-.3-8.1-3.4z"/></defs><clipPath id="SVGID_3_"><use xlink:href="#SVGID_2_" overflow="visible"/></clipPath><path d="M95 177.5c-.2 0-.5 0-.8-.1-.6-.1-1.4-.1-2.5-.3-2.2-.2-5.3-.5-9-.9-7.5-.7-17.5-1.7-27.4-2.6-20-1.9-39.9-3.7-39.9-3.7-.1 0-5.4-.2-8.6-3.6l.5-.4.5-.4c2.6 2.9 7.7 3.2 7.7 3.2s74.6 7 79.6 7.5h.3c.2 0 .4 0 .6-.1.6-.1 1.4-.1 2.4-.3 2.1-.2 5-.5 8.6-.9 7.1-.7 16.6-1.7 26-2.6 18.9-1.9 37.9-3.8 37.9-3.8s1.2-.1 2.7-.6c1.6-.5 3.5-1.4 5.1-2.9 2.6-2.5 2.8-7.3 2.8-7.3V48.3s-.3-4.1-2-6.3c-1.7-2.4-4.4-3.4-4.4-3.4L100.8 7.4s-.8-.3-1.9-.7c-1.1-.3-2.5-.7-3.7-.7-2.5 0-5.3 1.3-5.3 1.4L11 38.5s-3 1.6-4.5 3.6-2.2 6.2-2.2 6.1v109.6s.1 1 .5 2.5c.5 1.5 1.3 3.4 2.9 5.1l-.5.4-.5.4C3.3 162.6 3 158 3 157.9V48.2s.7-4.4 2.5-6.8c1.8-2.4 4.9-3.9 5-4L89.3 6.3s2.9-1.5 5.9-1.5c2.9 0 6.1 1.5 6.1 1.5l74.2 31.1c.1 0 3 1.2 5 3.9 2 2.8 2.3 7 2.3 7.1v109.5c0 .1-.1 5.1-3.1 8.2-3.5 3.5-8.5 3.9-8.6 3.9 0 0-18.6 1.8-37.3 3.7-18.4 1.8-37 3.7-38.3 3.9h-.2c-.2-.1-.3-.1-.3-.1z"/><defs><path id="SVGID_5_" d="M95.2 15.9L171.4 48v111L95 166l-80.5-6.9V48.2z"/></defs><clipPath id="SVGID_6_"><use xlink:href="#SVGID_5_" overflow="visible"/></clipPath><g clip-path="url(#SVGID_6_)"><radialGradient id="SVGID_7_" cx="-161.452" cy="-897.455" r="307.125" gradientTransform="matrix(.3388 0 0 -.3388 155.788 -208.495)" gradientUnits="userSpaceOnUse"><stop offset=".396" stop-color="#f1612d"/><stop offset=".654" stop-color="#eb3c29"/><stop offset="1" stop-color="#a41e22"/></radialGradient><path fill="url(#SVGID_7_)" d="M18.5 53.3l76.8-31.4 73 30.1.4 111.9-73.1 8.6L18.1 162z"/><path fill="#901a1d" d="M95.2 168.1l-83.4-8.9 83.5-2.6 78.7 2.5z"/><path fill="#a41e22" d="M20.1 55.3l75.3 12 71.9-11.4L95.4 26z"/><path class="st9" d="M93.1 169.3V14L12.9 46.5v114.4l9.3.7V55.3l59.3-23v134.5zm4.7 0V14.8l75.6 32v114.3l-8.1.6V55.9l-55.6-22.6v133.4z"/><linearGradient id="SVGID_8_" gradientUnits="userSpaceOnUse" x1="97.05" y1="240.972" x2="97.05" y2="-6.483" gradientTransform="matrix(1 0 0 -1 0 184)"><stop offset="0" stop-color="#a41e22"/><stop offset="1" stop-color="#eb3c29"/></linearGradient><path fill="url(#SVGID_8_)" d="M99.2 15.9v151.6l-4.3.3V13.9z"/><path fill="#eb3c29" d="M91.1 15.7v152l4.1.4V13.6z"/></g><path d="M235.3 90.8l-20.5-43.3h-9.5v63.8h9.5v-41l20.5 41L255.8 70v41.3h9.5V47.5h-9.5l-20.5 43.3zm57.3-43.3l-23.9 63.8h10.2l18.5-49.2 15.2 39.7h-20.7l-3.7 9.5h37.7l-23.8-63.8h-9.5zm31.3 9.5h17.6v54.3h9.5V57h17.1v-9.5h-44.2V57zm52.3 54.3h36.6v-9.5h-27.1V84.2h27.1v-9.5h-27.1V57.1h27.1v-9.6h-36.6v63.8zm117.2-63.8v63.8h9.5V47.5h-9.5zm32.3 54.3V84.2h27.1v-9.5h-27.1V57h27.1v-9.5h-36.6v63.8h36.7v-9.5h-27.2zm50.5-54.3h-9.5v63.8h44.2v-9.5h-34.7V47.5zm120.2 46.4l-40.5-46.4h-9.5v63.8h9.5V65.8l40.4 45.5h9.6V47.5h-9.5v46.4zm61-46.4H714v63.8h43.3v-9.5h-33.8V84.2h33.8v-9.5h-33.8V57h63.8v54.3h9V57H814v-9.5h-56.6zm-278 20.3c0-18.5-18.3-20.3-18.3-20.3h-34.4l-.1 63.7h9.5V88h16.4l15.5 23.2h11.3L463.8 88s15.6-1.7 15.6-20.2zm-18.3 10.8h-24.9V57h24.9s8.6-1 8.6 10.8-8.6 10.8-8.6 10.8zm163.4 23.2h9.5v9.5h-9.5z" fill-rule="evenodd" clip-rule="evenodd" fill="#fff" id="MATERIEL"/><path class="st9" d="M208.6 132.3v26h-3.4v-26h3.4zm14.9 12.4c0-1.9 0-3.5-.2-5.1h3l.2 3.1h.1c.9-1.8 3.1-3.5 6.2-3.5 2.6 0 6.6 1.5 6.6 8v11.2H236v-10.8c0-3-1.1-5.5-4.3-5.5-2.2 0-4 1.6-4.6 3.5-.2.4-.2 1-.2 1.6v11.2h-3.4v-13.7zm30.6 13.7v-16.1h-2.6v-2.6h2.6v-.9c0-2.6.6-5 2.2-6.5 1.3-1.2 3-1.7 4.6-1.7 1.2 0 2.2.3 2.9.5l-.5 2.6c-.5-.2-1.2-.4-2.2-.4-2.9 0-3.6 2.5-3.6 5.4v1h4.5v2.6h-4.5v16.1h-3.4zm36.1-9.5c0 6.9-4.8 9.9-9.3 9.9-5.1 0-9-3.7-9-9.6 0-6.3 4.1-9.9 9.3-9.9 5.3 0 9 3.9 9 9.6zm-14.9.2c0 4.1 2.4 7.2 5.7 7.2 3.2 0 5.7-3 5.7-7.3 0-3.2-1.6-7.2-5.6-7.2s-5.8 3.7-5.8 7.3zm27.9-3.6c0-2.2 0-4.1-.2-5.8h3l.1 3.7h.2c.8-2.5 2.9-4.1 5.2-4.1.4 0 .7 0 1 .1v3.2c-.3-.1-.7-.1-1.2-.1-2.4 0-4.1 1.8-4.6 4.4-.1.5-.2 1-.2 1.6v10h-3.4v-13h.1zm21.5-.8c0-1.9 0-3.5-.2-5.1h3l.2 3h.1c1-1.8 2.8-3.4 5.9-3.4 2.5 0 4.5 1.5 5.3 3.7h.1c.6-1 1.3-1.9 2.1-2.4 1.1-.8 2.4-1.3 4.1-1.3 2.5 0 6.1 1.6 6.1 8.1v11h-3.3v-10.6c0-3.6-1.3-5.8-4.1-5.8-1.9 0-3.4 1.4-4 3.1-.2.5-.3 1.1-.3 1.7v11.5h-3.3V147c0-3-1.3-5.1-3.9-5.1-2.1 0-3.7 1.7-4.2 3.4-.2.5-.3 1.1-.3 1.7v11.3h-3.3v-13.6zm51.3 13.7l-.3-2.4h-.1c-1 1.5-3 2.8-5.7 2.8-3.8 0-5.7-2.7-5.7-5.4 0-4.5 4-7 11.2-6.9v-.4c0-1.5-.4-4.3-4.2-4.3-1.7 0-3.6.5-4.9 1.4l-.8-2.2c1.5-1 3.8-1.7 6.1-1.7 5.7 0 7.1 3.9 7.1 7.6v7c0 1.6.1 3.2.3 4.5h-3zm-.5-9.6c-3.7-.1-7.9.6-7.9 4.2 0 2.2 1.5 3.2 3.2 3.2 2.4 0 4-1.5 4.5-3.1.1-.3.2-.7.2-1.1v-3.2zm21.5-14.5v5.4h4.9v2.6H397v10.1c0 2.3.7 3.6 2.5 3.6.9 0 1.5-.1 2-.2l.2 2.5c-.7.3-1.7.5-3 .5-1.6 0-2.9-.5-3.7-1.4-1-1-1.3-2.7-1.3-4.9v-10.2h-2.9v-2.6h2.9v-4.5l3.3-.9zm21.2.1c0 1.2-.8 2.1-2.2 2.1-1.2 0-2-.9-2-2.1 0-1.2.9-2.1 2.1-2.1 1.3 0 2.1.9 2.1 2.1zm-3.8 24v-18.7h3.4v18.7h-3.4zm30.6-2.9c-1.1 1.9-3.2 3.3-6.2 3.3-4.4 0-7.9-3.8-7.9-9.5 0-7 4.5-10.1 8.5-10.1 2.9 0 4.8 1.4 5.8 3.2h.1l.1-2.8h3.2c-.1 1.6-.1 3.2-.1 5.1V166H445v-10.5zm0-8.2c0-.5 0-1-.2-1.4-.5-2.1-2.3-3.9-4.9-3.9-3.5 0-5.6 3-5.6 7.2 0 3.7 1.8 6.9 5.5 6.9 2.2 0 4.1-1.4 4.9-3.7.2-.5.3-1.1.3-1.6v-3.5zm33.4 6c0 1.9 0 3.6.2 5.1h-3l-.2-3h-.1c-.9 1.5-2.9 3.5-6.2 3.5-2.9 0-6.4-1.6-6.4-8.2v-10.9h3.4V150c0 3.6 1.1 5.9 4.2 5.9 2.3 0 3.9-1.6 4.5-3.1.2-.5.3-1.1.3-1.7v-11.5h3.4l-.1 13.7zm16.2-3.7c.1 4.6 3 6.5 6.4 6.5 2.4 0 3.9-.4 5.2-1l.6 2.4c-1.2.5-3.2 1.2-6.2 1.2-5.8 0-9.2-3.8-9.2-9.4 0-5.6 3.3-10.1 8.8-10.1 6.1 0 7.7 5.4 7.7 8.8 0 .7-.1 1.2-.1 1.6h-13.2zm10-2.4c0-2.2-.9-5.5-4.7-5.5-3.4 0-4.9 3.2-5.2 5.5h9.9zm49.6 11.2c-.7-.7-1.4-1.5-2.4-2.5-2.2 2.1-4.7 3-7.6 3-5.1 0-8-3.4-8-7.3 0-3.6 2.1-6 5.1-7.6v-.1c-1.4-1.7-2.2-3.6-2.2-5.4 0-3.2 2.3-6.4 6.6-6.4 3.2 0 5.8 2.2 5.8 5.5 0 2.7-1.6 4.9-5.7 6.9v.1c2.2 2.5 4.7 5.4 6.3 7.3 1.2-1.8 2-4.3 2.5-7.6h3.1c-.7 4.1-1.8 7.3-3.7 9.6 1.4 1.5 2.7 2.9 4.3 4.6h-4.1v-.1zm-4.1-4.5c-1.5-1.7-4.4-4.9-7.3-8.2-1.4.9-3.4 2.5-3.4 5.3 0 3 2.2 5.3 5.3 5.3 2.3-.1 4.2-1.1 5.4-2.4zm-7.9-15.9c0 1.9.8 3.3 2 4.7 2.6-1.5 4.3-2.9 4.3-5.1 0-1.6-.9-3.4-3-3.4-2.2 0-3.3 1.8-3.3 3.8zm48.1-5.7v10.9h12.6v-10.9h3.4v26h-3.4v-12.2h-12.6v12.2H587v-26h3.3zm34.6 2.1c0 1.2-.8 2.1-2.2 2.1-1.2 0-2-.9-2-2.1 0-1.2.9-2.1 2.1-2.1 1.3 0 2.1.9 2.1 2.1zm-3.7 24v-18.7h3.4v18.7h-3.4zm33.9-18.7c-.1 1.4-.2 2.9-.2 5.1v10.8c0 4.3-.8 6.9-2.7 8.5-1.8 1.7-4.4 2.2-6.8 2.2-2.2 0-4.7-.5-6.2-1.5l.8-2.6c1.2.8 3.2 1.5 5.5 1.5 3.5 0 6-1.8 6-6.5v-2.1h-.1c-1 1.7-3 3.1-5.9 3.1-4.6 0-8-3.9-8-9.1 0-6.3 4.1-9.9 8.4-9.9 3.2 0 5 1.7 5.8 3.2h.1l.2-2.8h3.1v.1zm-3.6 7.4c0-.6 0-1.1-.2-1.5-.6-2-2.3-3.6-4.7-3.6-3.2 0-5.6 2.7-5.6 7.1 0 3.7 1.9 6.7 5.5 6.7 2.1 0 4-1.3 4.7-3.5.2-.6.3-1.2.3-1.8v-3.4zm17.8-16.1h3.4v11.7h.1c.5-1 1.4-1.8 2.4-2.4 1-.6 2.2-1 3.5-1 2.5 0 6.5 1.5 6.5 8v11.1h-3.4v-10.7c0-3-1.1-5.6-4.3-5.6-2.2 0-3.9 1.5-4.6 3.4-.2.5-.2 1-.2 1.6v11.3h-3.4V131zm38.1 15.7v2.5h-9.5v-2.5h9.5zm15.8-11.5h-7.9v-2.9h19.3v2.9h-8v23.2h-3.4v-23.2zm22.1 14.4c.1 4.6 3 6.5 6.4 6.5 2.4 0 3.9-.4 5.2-1l.6 2.4c-1.2.5-3.2 1.2-6.2 1.2-5.8 0-9.2-3.8-9.2-9.4 0-5.6 3.3-10.1 8.8-10.1 6.1 0 7.7 5.4 7.7 8.8 0 .7-.1 1.2-.1 1.6h-13.2zm9.9-2.4c0-2.2-.9-5.5-4.7-5.5-3.4 0-4.9 3.2-5.2 5.5h9.9zm29.6 10.5c-.9.5-2.9 1.1-5.4 1.1-5.6 0-9.3-3.8-9.3-9.5 0-5.8 3.9-9.9 10-9.9 2 0 3.8.5 4.7 1l-.8 2.6c-.8-.5-2.1-.9-3.9-.9-4.3 0-6.6 3.2-6.6 7.1 0 4.3 2.8 7 6.5 7 1.9 0 3.2-.5 4.2-.9l.6 2.4zm12.7-26.7h3.4v11.7h.1c.5-1 1.4-1.8 2.4-2.4 1-.6 2.2-1 3.5-1 2.5 0 6.5 1.5 6.5 8v11.1H810v-10.7c0-3-1.1-5.6-4.3-5.6-2.2 0-3.9 1.5-4.6 3.4-.2.5-.2 1-.2 1.6v11.3h-3.4V131z" id="VECTO"/></svg>